<?xml version="1.0" encoding="UTF-8"?>
<svg id="Layer_1" data-name="Layer 1" xmlns="http://www.w3.org/2000/svg" viewBox="0 0 848.34 986.43">
  <defs>
    <style>
      .cls-1 {
        stroke: #000;
        stroke-miterlimit: 10;
      }
    </style>
  </defs>
  <polygon class="cls-1" points="567.8 .74 698.54 43.99 727.54 145.76 706.17 161.03 663.93 123.37 668.51 186.98 615.09 224.12 542.34 177.82 615.09 277.04 770.28 160.01 721.43 10.41 567.8 .74"/>
  <polygon class="cls-1" points="468.52 141.71 478.72 258.21 310.8 387.46 458.87 656.63 361.18 399.67 537.74 277.04 468.52 141.71"/>
  <polygon class="cls-1" points="458.37 594.55 634.42 516.19 683.27 575.72 579.98 909.01 735.68 572.16 654.27 455.64 458.37 594.55"/>
  <path class="cls-1" d="M537.74,640.86s-27.99-21.37-41.22,13.23l-66.66,36.13-37.65-39.69,18.83,49.36L54.86,894.25.92,985.84l103.8-9.16,141.46-105.84,25.44-90.06,300.21,43.25-191.32-53.94,50.88-38.16,36.64,37.65-20.35-48.85,61.57-47.83s35.62,6.11,28.49-32.06Z"/>
  <polygon class="cls-1" points="640.53 839.81 741.28 825.05 783 781.29 749.42 694.79 847.62 784.86 765.7 867.8 640.53 839.81"/>
</svg>